<svg width="1920" height="300" viewBox="0 0 1920 300" fill="none" xmlns="http://www.w3.org/2000/svg">
<g clip-path="url(#clip0_1_2)">
<rect width="1920" height="300" fill="white"/>
<rect x="0.5" y="0.5" width="1919" height="299" stroke="black"/>
<rect x="96.5" y="15.5" width="1727" height="269" stroke="black"/>
<rect x="268.5" y="41.5" width="1383" height="215" stroke="#383838"/>
<rect x="479.5" y="74.5" width="961" height="149" stroke="#666666"/>
<line x1="-4.37114e-08" y1="148.5" x2="479" y2="148.5" stroke="url(#paint0_linear_1_2)"/>
<line x1="1441" y1="148.5" x2="1920" y2="148.5" stroke="url(#paint1_linear_1_2)"/>
<line x1="959.5" y1="300" x2="959.5" y2="224" stroke="url(#paint2_linear_1_2)"/>
<line x1="959.5" y1="74" x2="959.5" y2="-2.18557e-08" stroke="url(#paint3_linear_1_2)"/>
<line x1="478.83" y1="299.53" x2="688.83" y2="223.53" stroke="url(#paint4_linear_1_2)"/>
<line y1="-0.5" x2="223.329" y2="-0.5" transform="matrix(-0.940315 -0.340305 -0.340305 0.940315 1441 300)" stroke="url(#paint5_linear_1_2)"/>
<line y1="-0.5" x2="223.329" y2="-0.5" transform="matrix(0.940315 0.340305 0.340305 -0.940315 479 -2)" stroke="url(#paint6_linear_1_2)"/>
<line x1="1441.17" y1="-1.52984" x2="1231.17" y2="74.4702" stroke="url(#paint7_linear_1_2)"/>
<path d="M642.409 187C639.476 180.333 636.509 173.7 633.509 167.1C630.509 160.433 627.576 153.7 624.709 146.9C623.776 144.767 622.842 142.633 621.909 140.5C621.042 138.3 620.176 136.1 619.309 133.9C618.509 131.7 617.676 129.5 616.809 127.3C616.809 128.033 616.776 128.767 616.709 129.5C616.709 130.233 616.709 130.967 616.709 131.7C616.642 134.1 616.542 137 616.409 140.4C616.342 143.733 616.242 147.333 616.109 151.2C615.976 155 615.876 158.833 615.809 162.7C615.742 166.5 615.676 170.1 615.609 173.5C615.542 174.967 615.476 176.433 615.409 177.9C615.409 179.367 615.342 180.733 615.209 182C616.476 181.933 617.709 181.867 618.909 181.8C620.176 181.733 621.442 181.667 622.709 181.6V186H603.609V182.7C605.676 182.633 607.176 182.2 608.109 181.4C609.109 180.533 609.742 179.4 610.009 178C610.276 176.6 610.442 175.1 610.509 173.5L612.409 127.9C612.476 126.567 612.509 125.233 612.509 123.9C612.576 122.567 612.642 121.267 612.709 120C611.509 120.067 610.309 120.133 609.109 120.2C607.909 120.2 606.709 120.233 605.509 120.3V116H620.809L638.009 155.7C638.876 157.7 639.709 159.7 640.509 161.7C641.376 163.7 642.242 165.7 643.109 167.7C644.042 169.7 644.942 171.733 645.809 173.8H646.009C646.742 172 647.609 169.867 648.609 167.4C649.609 164.867 650.442 162.7 651.109 160.9C654.042 153.567 657.076 146.233 660.209 138.9C663.409 131.5 666.542 123.867 669.609 116H684.409V119.3C682.742 119.233 681.376 119.567 680.309 120.3C679.242 120.967 678.476 122.1 678.009 123.7C677.542 125.3 677.376 127.467 677.509 130.2L680.109 175.7C680.242 176.833 680.309 177.933 680.309 179C680.309 180.067 680.309 181.033 680.309 181.9C681.509 181.833 682.709 181.8 683.909 181.8C685.176 181.733 686.409 181.667 687.609 181.6V186H665.209V182.7C667.276 182.633 668.809 182.133 669.809 181.2C670.809 180.267 671.409 178.933 671.609 177.2C671.876 175.467 671.942 173.333 671.809 170.8L669.809 137.8C669.742 136.733 669.676 135.667 669.609 134.6C669.542 133.533 669.476 132.467 669.409 131.4C669.342 130.333 669.276 129.267 669.209 128.2C669.009 128.667 668.776 129.167 668.509 129.7C668.309 130.233 668.109 130.8 667.909 131.4L645.409 187H642.409ZM718.922 187.6C714.322 187.6 710.156 186.533 706.422 184.4C702.756 182.2 699.856 179.133 697.722 175.2C695.589 171.2 694.522 166.5 694.522 161.1C694.522 156.433 695.556 152.067 697.622 148C699.756 143.933 702.722 140.667 706.522 138.2C710.322 135.667 714.722 134.4 719.722 134.4C722.522 134.4 725.122 134.867 727.522 135.8C729.989 136.667 732.156 138.033 734.022 139.9C735.889 141.7 737.356 144 738.422 146.8C739.489 149.533 740.022 152.767 740.022 156.5L704.822 157.1C704.822 162.167 705.356 166.633 706.422 170.5C707.556 174.3 709.356 177.267 711.822 179.4C714.289 181.467 717.456 182.5 721.322 182.5C723.389 182.5 725.489 182.133 727.622 181.4C729.822 180.667 731.856 179.667 733.722 178.4C735.589 177.133 737.089 175.733 738.222 174.2L740.622 176.2C738.822 179 736.656 181.233 734.122 182.9C731.589 184.567 728.989 185.767 726.322 186.5C723.656 187.233 721.189 187.6 718.922 187.6ZM705.122 152.9H730.622C730.622 150.5 730.256 148.2 729.522 146C728.856 143.733 727.722 141.9 726.122 140.5C724.522 139.033 722.422 138.3 719.822 138.3C715.956 138.3 712.722 139.467 710.122 141.8C707.589 144.067 705.922 147.767 705.122 152.9ZM772.633 187.6C768.033 187.6 763.867 186.533 760.133 184.4C756.467 182.2 753.567 179.133 751.433 175.2C749.3 171.2 748.233 166.5 748.233 161.1C748.233 156.433 749.267 152.067 751.333 148C753.467 143.933 756.433 140.667 760.233 138.2C764.033 135.667 768.433 134.4 773.433 134.4C776.233 134.4 778.833 134.867 781.233 135.8C783.7 136.667 785.867 138.033 787.733 139.9C789.6 141.7 791.067 144 792.133 146.8C793.2 149.533 793.733 152.767 793.733 156.5L758.533 157.1C758.533 162.167 759.067 166.633 760.133 170.5C761.267 174.3 763.067 177.267 765.533 179.4C768 181.467 771.167 182.5 775.033 182.5C777.1 182.5 779.2 182.133 781.333 181.4C783.533 180.667 785.567 179.667 787.433 178.4C789.3 177.133 790.8 175.733 791.933 174.2L794.333 176.2C792.533 179 790.367 181.233 787.833 182.9C785.3 184.567 782.7 185.767 780.033 186.5C777.367 187.233 774.9 187.6 772.633 187.6ZM758.833 152.9H784.333C784.333 150.5 783.967 148.2 783.233 146C782.567 143.733 781.433 141.9 779.833 140.5C778.233 139.033 776.133 138.3 773.533 138.3C769.667 138.3 766.433 139.467 763.833 141.8C761.3 144.067 759.633 147.767 758.833 152.9ZM820.749 187.6C819.215 187.6 817.649 187.367 816.049 186.9C814.449 186.5 812.949 185.667 811.549 184.4C810.215 183.133 809.149 181.3 808.349 178.9C807.549 176.433 807.149 173.2 807.149 169.2L807.349 140.2L799.649 140.3V136C801.382 135.933 803.149 135.3 804.949 134.1C806.749 132.833 808.349 131.133 809.749 129C811.215 126.867 812.215 124.533 812.749 122H816.149V136H832.949V139.9L816.149 140.1L815.949 167.9C815.949 170.9 816.182 173.467 816.649 175.6C817.182 177.667 818.015 179.233 819.149 180.3C820.282 181.367 821.749 181.9 823.549 181.9C825.415 181.9 827.149 181.367 828.749 180.3C830.415 179.233 831.882 177.767 833.149 175.9L835.849 178.1C834.382 180.3 832.915 182.033 831.449 183.3C830.049 184.567 828.682 185.5 827.349 186.1C826.015 186.767 824.782 187.167 823.649 187.3C822.515 187.5 821.549 187.6 820.749 187.6ZM920.39 137.1C920.324 133.167 919.924 129.9 919.19 127.3C918.457 124.7 917.157 122.767 915.29 121.5C913.49 120.167 910.857 119.533 907.39 119.6H898.89L898.79 174.1C898.79 175.9 898.757 177.467 898.69 178.8C898.69 180.067 898.624 181.133 898.49 182C899.89 181.933 901.257 181.867 902.59 181.8C903.99 181.733 905.39 181.667 906.79 181.6V186H883.29V182.7C885.824 182.567 887.524 181.967 888.39 180.9C889.324 179.833 889.824 178.4 889.89 176.6C890.024 174.733 890.09 172.667 890.09 170.4L890.19 119.7L879.89 119.8C875.69 119.8 872.724 121.2 870.99 124C869.257 126.8 868.39 131.167 868.39 137.1H864.69L865.29 116H923.59L924.19 137.1H920.39ZM962.955 183C965.022 183 966.455 182.5 967.255 181.5C968.055 180.433 968.522 179 968.655 177.2C968.788 175.333 968.855 173.2 968.855 170.8V156.8C968.855 151.067 967.922 146.767 966.055 143.9C964.255 141.033 961.388 139.633 957.455 139.7C954.988 139.767 952.555 140.367 950.155 141.5C947.822 142.633 945.922 144.1 944.455 145.9V175.4C944.455 176.733 944.422 177.933 944.355 179C944.288 180 944.155 181.067 943.955 182.2C945.022 182.133 946.055 182.1 947.055 182.1C948.122 182.033 949.188 181.967 950.255 181.9V186H929.855V183C931.922 183 933.355 182.5 934.155 181.5C934.955 180.433 935.422 179 935.555 177.2C935.755 175.333 935.855 173.2 935.855 170.8V123.5C935.855 122.433 935.855 121.433 935.855 120.5C935.922 119.5 936.022 118.333 936.155 117C934.955 117.067 933.755 117.133 932.555 117.2C931.422 117.267 930.255 117.333 929.055 117.4V113.2C931.988 113.2 934.255 113.067 935.855 112.8C937.522 112.533 938.755 112.2 939.555 111.8C940.422 111.4 941.088 110.967 941.555 110.5H944.455V141C945.922 139.733 947.555 138.633 949.355 137.7C951.222 136.7 953.122 135.9 955.055 135.3C957.055 134.7 958.988 134.4 960.855 134.4C966.655 134.4 970.822 136.233 973.355 139.9C975.955 143.5 977.288 149.133 977.355 156.8L977.455 175.4C977.455 176.733 977.422 177.933 977.355 179C977.355 180 977.255 181.067 977.055 182.2C978.122 182.133 979.155 182.1 980.155 182.1C981.222 182.033 982.288 181.967 983.355 181.9V186H962.955V183ZM1014.92 187.6C1010.32 187.6 1006.15 186.533 1002.42 184.4C998.752 182.2 995.852 179.133 993.718 175.2C991.585 171.2 990.518 166.5 990.518 161.1C990.518 156.433 991.552 152.067 993.618 148C995.752 143.933 998.718 140.667 1002.52 138.2C1006.32 135.667 1010.72 134.4 1015.72 134.4C1018.52 134.4 1021.12 134.867 1023.52 135.8C1025.99 136.667 1028.15 138.033 1030.02 139.9C1031.89 141.7 1033.35 144 1034.42 146.8C1035.49 149.533 1036.02 152.767 1036.02 156.5L1000.82 157.1C1000.82 162.167 1001.35 166.633 1002.42 170.5C1003.55 174.3 1005.35 177.267 1007.82 179.4C1010.29 181.467 1013.45 182.5 1017.32 182.5C1019.39 182.5 1021.49 182.133 1023.62 181.4C1025.82 180.667 1027.85 179.667 1029.72 178.4C1031.59 177.133 1033.09 175.733 1034.22 174.2L1036.62 176.2C1034.82 179 1032.65 181.233 1030.12 182.9C1027.59 184.567 1024.99 185.767 1022.32 186.5C1019.65 187.233 1017.19 187.6 1014.92 187.6ZM1001.12 152.9H1026.62C1026.62 150.5 1026.25 148.2 1025.52 146C1024.85 143.733 1023.72 141.9 1022.12 140.5C1020.52 139.033 1018.42 138.3 1015.82 138.3C1011.95 138.3 1008.72 139.467 1006.12 141.8C1003.59 144.067 1001.92 147.767 1001.12 152.9ZM1124.69 137.1C1124.62 133.167 1124.22 129.9 1123.49 127.3C1122.75 124.7 1121.45 122.767 1119.59 121.5C1117.79 120.167 1115.15 119.533 1111.69 119.6H1103.19L1103.09 174.1C1103.09 175.9 1103.05 177.467 1102.99 178.8C1102.99 180.067 1102.92 181.133 1102.79 182C1104.19 181.933 1105.55 181.867 1106.89 181.8C1108.29 181.733 1109.69 181.667 1111.09 181.6V186H1087.59V182.7C1090.12 182.567 1091.82 181.967 1092.69 180.9C1093.62 179.833 1094.12 178.4 1094.19 176.6C1094.32 174.733 1094.39 172.667 1094.39 170.4L1094.49 119.7L1084.19 119.8C1079.99 119.8 1077.02 121.2 1075.29 124C1073.55 126.8 1072.69 131.167 1072.69 137.1H1068.99L1069.59 116H1127.89L1128.49 137.1H1124.69ZM1154.47 187.6C1149.87 187.6 1145.7 186.533 1141.97 184.4C1138.3 182.2 1135.4 179.133 1133.27 175.2C1131.14 171.2 1130.07 166.5 1130.07 161.1C1130.07 156.433 1131.1 152.067 1133.17 148C1135.3 143.933 1138.27 140.667 1142.07 138.2C1145.87 135.667 1150.27 134.4 1155.27 134.4C1158.07 134.4 1160.67 134.867 1163.07 135.8C1165.54 136.667 1167.7 138.033 1169.57 139.9C1171.44 141.7 1172.9 144 1173.97 146.8C1175.04 149.533 1175.57 152.767 1175.57 156.5L1140.37 157.1C1140.37 162.167 1140.9 166.633 1141.97 170.5C1143.1 174.3 1144.9 177.267 1147.37 179.4C1149.84 181.467 1153 182.5 1156.87 182.5C1158.94 182.5 1161.04 182.133 1163.17 181.4C1165.37 180.667 1167.4 179.667 1169.27 178.4C1171.14 177.133 1172.64 175.733 1173.77 174.2L1176.17 176.2C1174.37 179 1172.2 181.233 1169.67 182.9C1167.14 184.567 1164.54 185.767 1161.87 186.5C1159.2 187.233 1156.74 187.6 1154.47 187.6ZM1140.67 152.9H1166.17C1166.17 150.5 1165.8 148.2 1165.07 146C1164.4 143.733 1163.27 141.9 1161.67 140.5C1160.07 139.033 1157.97 138.3 1155.37 138.3C1151.5 138.3 1148.27 139.467 1145.67 141.8C1143.14 144.067 1141.47 147.767 1140.67 152.9ZM1214.67 186C1214.47 184.867 1214.34 183.867 1214.27 183C1214.21 182.133 1214.11 181.233 1213.97 180.3C1211.71 182.567 1209.24 184.367 1206.57 185.7C1203.97 186.967 1201.21 187.6 1198.27 187.6C1193.21 187.6 1189.44 186.467 1186.97 184.2C1184.51 181.867 1183.27 179.033 1183.27 175.7C1183.27 172.633 1184.21 170 1186.07 167.8C1188.01 165.533 1190.47 163.7 1193.47 162.3C1196.54 160.833 1199.84 159.767 1203.37 159.1C1206.97 158.367 1210.44 158.033 1213.77 158.1V151.9C1213.77 149.567 1213.57 147.367 1213.17 145.3C1212.77 143.233 1211.91 141.533 1210.57 140.2C1209.24 138.867 1207.11 138.167 1204.17 138.1C1202.24 138.033 1200.24 138.4 1198.17 139.2C1196.17 140 1194.71 141.367 1193.77 143.3C1194.31 143.833 1194.64 144.467 1194.77 145.2C1194.97 145.867 1195.07 146.5 1195.07 147.1C1195.07 147.9 1194.74 148.833 1194.07 149.9C1193.41 150.9 1192.24 151.367 1190.57 151.3C1189.17 151.3 1188.11 150.833 1187.37 149.9C1186.64 148.9 1186.27 147.733 1186.27 146.4C1186.27 144.133 1187.11 142.1 1188.77 140.3C1190.51 138.5 1192.87 137.067 1195.87 136C1198.87 134.933 1202.27 134.4 1206.07 134.4C1211.67 134.4 1215.81 135.9 1218.47 138.9C1221.14 141.833 1222.44 146.5 1222.37 152.9C1222.37 155.367 1222.37 157.867 1222.37 160.4C1222.37 162.867 1222.34 165.367 1222.27 167.9C1222.27 170.367 1222.27 172.867 1222.27 175.4C1222.27 176.467 1222.24 177.533 1222.17 178.6C1222.11 179.667 1222.01 180.867 1221.87 182.2C1223.07 182.133 1224.24 182.067 1225.37 182C1226.57 181.933 1227.77 181.867 1228.97 181.8V186H1214.67ZM1213.77 161.5C1211.51 161.567 1209.11 161.867 1206.57 162.4C1204.11 162.867 1201.81 163.6 1199.67 164.6C1197.61 165.6 1195.91 166.933 1194.57 168.6C1193.31 170.2 1192.71 172.167 1192.77 174.5C1192.91 176.967 1193.71 178.833 1195.17 180.1C1196.71 181.3 1198.51 181.9 1200.57 181.9C1203.31 181.9 1205.67 181.4 1207.67 180.4C1209.74 179.333 1211.77 177.867 1213.77 176C1213.71 175.267 1213.67 174.467 1213.67 173.6C1213.67 172.733 1213.67 171.833 1213.67 170.9C1213.67 170.567 1213.67 169.5 1213.67 167.7C1213.74 165.9 1213.77 163.833 1213.77 161.5ZM1235.84 186V183C1237.9 183 1239.34 182.5 1240.14 181.5C1240.94 180.433 1241.4 179 1241.54 177.2C1241.67 175.333 1241.74 173.2 1241.74 170.8V148C1241.74 146.933 1241.74 145.867 1241.74 144.8C1241.8 143.733 1241.94 142.633 1242.14 141.5C1240.94 141.567 1239.74 141.633 1238.54 141.7C1237.4 141.767 1236.24 141.833 1235.04 141.9V137.7C1237.97 137.7 1240.17 137.567 1241.64 137.3C1243.17 137.033 1244.3 136.7 1245.04 136.3C1245.77 135.9 1246.37 135.467 1246.84 135H1249.74C1249.87 135.667 1249.94 136.433 1249.94 137.3C1250 138.167 1250.07 139.167 1250.14 140.3C1252.14 138.567 1254.44 137.167 1257.04 136.1C1259.64 134.967 1262.24 134.4 1264.84 134.4C1268.17 134.4 1270.97 135 1273.24 136.2C1275.5 137.4 1277.27 139.033 1278.54 141.1C1280.8 139.233 1283.4 137.667 1286.34 136.4C1289.34 135.067 1292.27 134.4 1295.14 134.4C1300.94 134.4 1305.2 136.167 1307.94 139.7C1310.67 143.167 1311.97 148.867 1311.84 156.8L1311.74 175.4C1311.74 176.733 1311.7 177.933 1311.64 179C1311.64 180 1311.54 181.067 1311.34 182.2C1312.4 182.133 1313.44 182.1 1314.44 182.1C1315.5 182.033 1316.57 181.967 1317.64 181.9V186H1297.24V183C1299.3 183 1300.74 182.5 1301.54 181.5C1302.34 180.433 1302.8 179 1302.94 177.2C1303.07 175.333 1303.14 173.2 1303.14 170.8V156.8C1303.14 151.067 1302.2 146.767 1300.34 143.9C1298.54 141.033 1295.67 139.633 1291.74 139.7C1289.67 139.7 1287.6 140.167 1285.54 141.1C1283.47 142.033 1281.67 143.2 1280.14 144.6C1280.47 145.667 1280.7 146.833 1280.84 148.1C1281.04 149.3 1281.14 150.567 1281.14 151.9C1281.07 155.767 1281.04 159.667 1281.04 163.6C1281.04 167.533 1281 171.467 1280.94 175.4C1280.94 176.733 1280.9 177.933 1280.84 179C1280.84 180 1280.74 181.067 1280.54 182.2C1281.6 182.133 1282.64 182.1 1283.64 182.1C1284.7 182.033 1285.77 181.967 1286.84 181.9V186H1266.44V183C1268.5 183 1269.9 182.5 1270.64 181.5C1271.44 180.433 1271.9 179 1272.04 177.2C1272.24 175.333 1272.34 173.2 1272.34 170.8L1272.44 156.8C1272.5 151.067 1271.67 146.733 1269.94 143.8C1268.2 140.867 1265.37 139.433 1261.44 139.5C1259.37 139.5 1257.34 139.967 1255.34 140.9C1253.34 141.767 1251.64 142.9 1250.24 144.3C1250.24 145.1 1250.24 145.967 1250.24 146.9C1250.3 147.767 1250.34 148.7 1250.34 149.7V175.4C1250.34 176.733 1250.3 177.933 1250.24 179C1250.24 180 1250.14 181.067 1249.94 182.2C1251 182.133 1252.04 182.1 1253.04 182.1C1254.1 182.033 1255.17 181.967 1256.24 181.9V186H1235.84Z" fill="black"/>
</g>
<defs>
<linearGradient id="paint0_linear_1_2" x1="4.37114e-08" y1="149.5" x2="479" y2="149.5" gradientUnits="userSpaceOnUse">
<stop/>
<stop offset="1" stop-color="#666666"/>
</linearGradient>
<linearGradient id="paint1_linear_1_2" x1="1441" y1="149.5" x2="1920" y2="149.5" gradientUnits="userSpaceOnUse">
<stop stop-color="#666666"/>
<stop offset="1"/>
</linearGradient>
<linearGradient id="paint2_linear_1_2" x1="960.5" y1="300" x2="960.5" y2="224" gradientUnits="userSpaceOnUse">
<stop/>
<stop offset="1" stop-color="#666666"/>
</linearGradient>
<linearGradient id="paint3_linear_1_2" x1="960.5" y1="74" x2="960.5" y2="2.18557e-08" gradientUnits="userSpaceOnUse">
<stop stop-color="#666666"/>
<stop offset="1"/>
</linearGradient>
<linearGradient id="paint4_linear_1_2" x1="479.17" y1="300.47" x2="689.17" y2="224.47" gradientUnits="userSpaceOnUse">
<stop/>
<stop offset="1" stop-color="#666666"/>
</linearGradient>
<linearGradient id="paint5_linear_1_2" x1="0" y1="0.5" x2="223.329" y2="0.5" gradientUnits="userSpaceOnUse">
<stop/>
<stop offset="1" stop-color="#666666"/>
</linearGradient>
<linearGradient id="paint6_linear_1_2" x1="0" y1="0.5" x2="223.329" y2="0.5" gradientUnits="userSpaceOnUse">
<stop/>
<stop offset="1" stop-color="#666666"/>
</linearGradient>
<linearGradient id="paint7_linear_1_2" x1="1440.83" y1="-2.47016" x2="1230.83" y2="73.5298" gradientUnits="userSpaceOnUse">
<stop/>
<stop offset="1" stop-color="#666666"/>
</linearGradient>
<clipPath id="clip0_1_2">
<rect width="1920" height="300" fill="white"/>
</clipPath>
</defs>
</svg>
